<?xml version="1.0" encoding="utf-8"?>
<!-- Generator: Adobe Illustrator 22.1.0, SVG Export Plug-In . SVG Version: 6.00 Build 0)  -->
<svg version="1.1" id="Layer_1" xmlns="http://www.w3.org/2000/svg" xmlns:xlink="http://www.w3.org/1999/xlink" x="0px" y="0px"
	 viewBox="0 0 1071 315.6" style="enable-background:new 0 0 1071 315.6;" xml:space="preserve">
<g id="pong">
	<g>
		<path d="M397.8,0c10.2,1.8,20.5,1.9,30.7,3.9C493.9,16.7,541.1,63.4,552,128.3c8.3,49.3-2.8,94-37.5,131
			c-24.1,25.7-54.5,40.6-89.3,45.7c-48.3,7.1-92.9-1.9-132.1-32.5c-67.6-52.8-76.3-156-18.7-219.4c28.9-31.8,64.6-49.5,107.6-52.3
			c1.6-0.1,3.1-0.6,4.7-0.9C390.5,0,394.1,0,397.8,0z M394.4,60.8c-52.8,0-95.7,41.8-95.7,93.1c0,51.9,44.3,95.8,96.4,95.6
			c53.4-0.2,99-43.3,99-93.4C494.1,105.2,447.7,60.8,394.4,60.8z"/>
		<path d="M0,6.9c36.1,0,72.5-3,108.3,0.6c73.1,7.3,98.3,74.2,74.4,129.4c-16.6,38.4-47.4,58-89.8,58.3c-7.4,0-14.7,0.3-22.1-0.1
			c-6.3-0.4-8.5,1.8-8.4,8.2c0.3,31.3,0.1,62.6,0.1,93.9c0,11.2,0,11.2-11.5,11.2c-17-0.1-34-0.2-51.1-0.4C0,207.7,0,107.3,0,6.9z
			 M64,100.5c0,10.6,0.2,21.1-0.1,31.7c-0.2,5.5,1.9,7.3,7.2,7.1c6.9-0.3,13.8-0.7,20.7,0c22.3,2.4,43.9-24,40.5-46.5
			c-2.7-17.8-16.5-30.2-34.3-30.3c-9,0-17.9,0.2-26.9-0.1c-5.3-0.2-7.4,1.6-7.2,7.1C64.3,79.9,64,90.2,64,100.5z"/>
		<path d="M604.9,194.8c0-32.2,0.4-64.5-0.1-96.7C604.1,43.5,642.9,6.4,695,1.4c37.3-3.6,70.2,7.1,96.8,34.2
			c16.3,16.6,24.7,36.9,24.7,60.4c0,67,0,134,0,201c0,10.1-0.1,10.2-9.9,10.2c-14,0-28.1,0-42.1,0c-11.5,0-11.6,0-11.6-11.4
			c0-62.4,0-124.8,0-187.2c0-3.2,0-6.4,0-9.7c0-21-8.2-33.5-25.3-38.7c-21.2-6.5-43.2,0-53.9,15.9c-5.2,7.8-6.1,16.7-6.1,25.8
			c0,64.2,0,128.5,0,192.7c0,12.6,0,12.6-12.9,12.6c-13.6,0-27.2,0-40.7,0c-8.9,0-9.2-0.3-9.2-9.4
			C604.9,263.4,604.9,229.1,604.9,194.8z"/>
		<path d="M1070.9,231.4c0,22.8-0.2,45.6,0.1,68.4c0.1,6.3-2.2,9-8.2,10.4c-58.1,13.2-110.7,3-154-39.5
			c-60.9-59.8-64.1-158.2-4.7-217.5c30.7-30.7,68-48.6,112-50.2c16.1-0.6,32.1,1.6,47.7,6.3c5,1.5,7,4.2,7,9.4
			c-0.2,16.8,0,33.6-0.1,50.4c0,8.9-0.7,9.3-9,6.1c-36.2-13.7-69.9-8.8-100.1,15.1c-39,30.9-46,84-17.4,125
			c12.1,17.4,26.9,31.5,48,37.4c2.2,0.6,4.5,0.9,6.8,1.3c4.8,0.7,6.7-1.4,6.7-6.2c-0.1-10.1-0.1-20.3,0-30.4c0-4-1.6-5.9-5.8-5.8
			c-5.3,0.1-10.6-0.1-15.9,0c-4.3,0.1-6.3-1.7-6.3-6.2c0.1-15.4,0.1-30.8,0-46.3c0-4.6,2.3-6,6.4-6c26.7,0,53.4,0.1,80.1,0
			c5.8,0,6.8,3,6.7,7.9C1070.8,184.5,1070.9,208,1070.9,231.4z"/>
	</g>
</g>
</svg>
